<svg width="440" height="107" viewBox="0 0 440 107" fill="none" xmlns="http://www.w3.org/2000/svg">
<path d="M21.0621 14.1569C20.4039 12.5108 19.0875 11.1938 17.7711 10.5354C16.4548 9.54769 14.4802 9.21846 12.5056 9.21846C10.2019 9.21846 7.89828 9.87692 6.25281 11.1938C4.27823 12.5108 2.96186 14.1569 1.64548 16.4615C0.329095 18.7662 0 21.0708 0 24.0338C0 26.9969 0.65819 29.96 1.64548 32.2646C2.63276 34.5692 4.27823 36.2154 6.25281 37.5323C7.89828 38.8492 10.2019 39.5077 12.5056 39.5077C14.4802 39.5077 16.4548 39.1785 17.7711 38.1908C19.4166 37.2031 20.4039 36.2154 21.0621 34.5692V39.1785H31.5931V0H21.0621V14.1569ZM19.7457 28.6431C18.7584 29.6308 17.442 30.2892 15.7966 30.2892C14.1511 30.2892 12.8347 29.6308 11.8474 28.6431C10.8601 27.6554 10.531 26.0092 10.531 24.0338C10.531 22.0585 11.1892 20.7415 12.1765 19.4246C13.1638 18.1077 14.4802 17.7785 16.1257 17.7785C17.442 18.1077 18.7584 18.7662 19.7457 19.7538C20.733 20.7415 21.3912 22.3877 21.3912 24.0338C21.3912 26.0092 20.733 27.6554 19.7457 28.6431Z" fill="#0C008C"/>
<path d="M65.1611 33.9108C66.4775 32.2647 67.4648 30.2893 67.7939 28.3139H56.9337C56.6046 28.9724 56.2755 29.6308 55.6173 30.2893C54.9591 30.9477 53.9719 30.9477 52.9846 30.9477C50.3518 30.9477 48.7063 29.3016 48.7063 26.0093H68.123C68.452 25.0216 68.452 24.3631 68.452 23.7047C68.452 20.7416 67.7939 18.1077 66.4775 16.1324C65.1611 13.8277 63.5156 12.1816 61.212 10.8647C58.9083 9.54774 56.2755 9.21851 53.3137 9.21851C50.3518 9.21851 47.7191 9.87697 45.4154 11.1939C43.1117 12.5108 41.4662 14.157 40.1499 16.4616C38.8335 18.7662 38.1753 21.4 38.1753 24.3631C38.1753 27.3262 38.8335 30.2893 40.1499 32.5939C41.4662 34.8985 43.1117 36.5447 45.4154 37.8616C47.7191 39.1785 50.3518 39.837 53.3137 39.837C55.6173 39.837 57.921 39.5077 59.8956 38.52C62.1992 36.8739 63.8447 35.557 65.1611 33.9108ZM50.0227 18.437C51.01 17.7785 51.9973 17.12 53.3137 17.12C54.6301 17.12 55.6173 17.4493 56.6046 18.437C57.5919 19.0954 57.921 20.4124 57.921 21.7293H48.7063C48.7063 20.0831 49.0354 19.0954 50.0227 18.437Z" fill="#0C008C"/>
<path d="M95.7669 38.8489L105.969 9.54736H95.1087L89.5141 28.972L83.9195 9.54736H72.7302L82.9322 38.8489H95.7669Z" fill="#0C008C"/>
<path d="M137.233 33.9108C138.549 32.2647 139.536 30.2893 139.865 28.3139H129.005C128.676 28.9724 128.347 29.6308 127.689 30.2893C127.031 30.9477 126.043 30.9477 125.056 30.9477C122.423 30.9477 120.778 29.3016 120.778 26.0093H140.194C140.524 25.0216 140.524 24.3631 140.524 23.7047C140.524 20.7416 139.865 18.1077 138.549 16.1324C137.233 13.8277 135.587 12.1816 133.283 10.8647C130.98 9.54774 128.347 9.21851 125.385 9.21851C122.423 9.21851 119.791 9.87697 117.487 11.1939C115.183 12.5108 113.538 14.157 112.221 16.4616C110.905 18.7662 110.247 21.4 110.247 24.3631C110.247 27.3262 110.905 30.2893 112.221 32.5939C113.538 34.8985 115.183 36.5447 117.487 37.8616C119.791 39.1785 122.423 39.837 125.385 39.837C127.689 39.837 129.993 39.5077 131.967 38.52C134.271 36.8739 135.916 35.557 137.233 33.9108ZM122.094 18.437C123.082 17.7785 124.069 17.12 125.385 17.12C126.702 17.12 127.689 17.4493 128.676 18.437C129.663 19.0954 129.993 20.4124 129.993 21.7293H120.778C120.778 20.0831 121.436 19.0954 122.094 18.437Z" fill="#0C008C"/>
<path d="M157.636 0H147.105V38.8492H157.636V0Z" fill="#0C008C"/>
<path d="M187.913 10.8645C185.609 9.54762 182.977 8.88916 180.015 8.88916C177.053 8.88916 174.42 9.54762 172.117 10.8645C169.813 12.1815 167.838 13.8276 166.522 16.1322C165.206 18.4369 164.547 21.0707 164.547 24.0338C164.547 26.9969 165.206 29.9599 166.522 31.9353C167.838 33.9107 169.813 35.8861 172.117 37.203C174.42 38.5199 177.053 39.1784 180.015 39.1784C182.977 39.1784 185.609 38.5199 187.913 37.203C190.217 35.8861 192.191 34.2399 193.508 31.9353C194.824 29.6307 195.482 26.9969 195.482 24.0338C195.482 21.0707 194.824 18.4369 193.508 16.1322C191.862 13.8276 190.217 12.1815 187.913 10.8645ZM183.306 28.643C182.319 29.6307 181.331 30.2892 179.686 30.2892C178.369 30.2892 177.053 29.6307 176.066 28.643C175.078 27.6553 175.078 26.3384 175.078 24.0338C175.078 22.0584 175.407 20.4122 176.395 19.4245C177.382 18.4369 178.698 17.7784 180.015 17.7784C181.331 17.7784 182.648 18.4369 183.635 19.4245C184.622 20.4122 184.951 22.0584 184.951 24.0338C184.951 26.3384 184.293 27.6553 183.306 28.643Z" fill="#0C008C"/>
<path d="M227.733 37.5322C229.708 36.2153 231.024 34.5692 232.341 32.2645C233.328 29.9599 233.657 27.3261 233.657 24.0338C233.657 20.7415 232.999 18.1076 232.012 16.1322C231.024 14.1569 229.379 12.1815 227.404 10.8645C225.43 9.54762 223.455 8.88916 221.151 8.88916C219.177 8.88916 217.202 9.21839 215.886 10.2061C214.24 11.1938 213.253 12.1815 212.595 13.8276V9.54762H202.064V53.9938V92.843H212.595V54.323V34.2399C213.253 35.8861 214.57 37.203 215.886 37.8615C217.531 38.8492 219.177 39.1784 221.151 39.1784C223.455 39.5076 225.759 38.8492 227.733 37.5322ZM213.911 28.643C212.924 27.6553 212.266 26.0092 212.266 24.0338C212.266 22.0584 212.924 20.7415 213.911 19.7538C214.899 18.7661 216.215 18.1076 217.861 18.1076C219.506 18.1076 220.822 18.7661 221.81 19.7538C222.797 20.7415 223.455 22.3876 223.455 24.363C223.455 26.3384 222.797 27.6553 221.81 28.9722C220.822 29.9599 219.506 30.6184 217.861 30.6184C216.215 30.2892 214.899 29.6307 213.911 28.643Z" fill="#0C008C"/>
<path d="M257.352 28.3139C257.023 28.9724 256.694 29.6308 256.036 30.2893C255.378 30.9477 254.39 30.9477 253.403 30.9477C250.77 30.9477 249.125 29.3016 249.125 26.0093H268.541C268.87 25.0216 268.87 24.3631 268.87 23.7047C268.87 20.7416 268.212 18.1077 266.896 16.1324C265.58 13.8277 263.934 12.1816 261.63 10.8647C259.327 9.54774 256.694 9.21851 253.732 9.21851C250.77 9.21851 248.137 9.87697 245.834 11.1939C243.53 12.5108 241.885 14.157 240.568 16.4616C239.252 18.7662 238.594 21.4 238.594 24.3631C238.594 27.3262 239.252 30.2893 240.568 32.5939C241.885 34.8985 243.53 36.5447 245.834 37.8616C248.137 39.1785 250.77 39.837 253.732 39.837C256.036 39.837 258.339 39.5077 260.314 38.52C262.289 37.5324 263.934 36.2154 265.25 34.5693C266.567 32.9231 267.554 30.9477 267.883 28.9724H257.352V28.3139ZM250.77 18.437C251.758 17.7785 252.745 17.12 254.061 17.12C255.378 17.12 256.365 17.4493 257.352 18.437C258.339 19.0954 258.669 20.4124 258.669 21.7293H249.454C249.454 20.0831 249.783 19.0954 250.77 18.437Z" fill="#0C008C"/>
<path d="M296.186 20.0831V9.21851C294.211 9.21851 292.236 9.87697 290.591 10.8647C288.946 11.8524 287.3 13.1693 286.313 15.1447V9.54774H275.782V39.1785H286.313V26.3385C286.313 24.0339 286.971 22.717 287.958 21.7293C289.275 20.7416 290.92 20.4124 293.224 20.4124H296.186V20.0831Z" fill="#0C008C"/>
<path d="M321.855 22.7169C320.209 22.0584 318.564 21.7292 316.26 21.0707C314.286 20.7415 312.969 20.083 311.982 19.7538C310.995 19.4245 310.666 18.7661 310.666 18.1076C310.666 17.4492 310.995 17.1199 311.324 16.7907C311.653 16.4615 312.311 16.1322 312.969 16.1322C313.957 16.1322 314.944 16.4615 315.602 16.7907C316.26 17.4492 316.918 18.1076 317.247 19.0953H326.791C326.462 16.4615 324.817 13.8276 322.513 11.8522C320.209 9.87685 317.247 8.88916 313.298 8.88916C309.349 8.88916 306.387 9.87685 304.413 11.523C302.438 13.1692 301.451 15.4738 301.451 18.1076C301.451 20.4122 302.109 22.0584 303.096 23.0461C304.084 24.363 305.4 25.0215 306.716 25.6799C308.033 26.3384 310.007 26.6676 312.311 27.3261C314.286 27.6553 315.602 27.9845 316.589 28.643C317.577 28.9722 317.906 29.6307 317.906 30.6184C317.906 31.2769 317.577 31.6061 317.247 31.9353C316.918 32.2645 316.26 32.5938 315.273 32.5938C313.957 32.5938 312.969 32.2645 312.311 31.9353C311.653 31.2769 310.995 30.6184 310.995 29.6307H301.122C301.78 32.923 303.096 35.5569 305.729 37.203C308.362 38.8492 311.324 39.8369 315.602 39.8369C317.906 39.8369 320.209 39.5076 321.855 38.8492C323.5 38.1907 325.146 37.203 326.133 35.5569C327.12 33.9107 327.449 32.5938 327.449 30.9476C327.449 28.643 326.791 26.9969 325.804 25.6799C324.817 24.363 323.5 23.3753 321.855 22.7169Z" fill="#0C008C"/>
<path d="M366.612 14.157C365.954 12.5108 364.637 11.1939 363.321 10.5354C361.675 9.54774 360.03 9.21851 358.055 9.21851C355.752 9.21851 353.448 9.87697 351.803 11.1939C349.828 12.5108 348.512 14.157 347.195 16.4616C345.879 18.7662 345.55 21.0708 345.55 24.0339C345.55 26.997 346.208 29.96 347.195 32.2647C348.183 34.5693 349.828 36.2154 351.803 37.5323C353.777 38.8493 355.752 39.5077 358.055 39.5077C360.03 39.5077 362.005 39.1785 363.321 38.1908C364.966 37.2031 365.954 36.2154 366.612 34.5693V39.1785H376.814V9.54774H366.612V14.157ZM365.296 28.6431C364.308 29.6308 362.992 30.2893 361.346 30.2893C359.701 30.2893 358.385 29.6308 357.397 28.6431C356.41 27.6554 355.752 26.0093 355.752 24.0339C355.752 22.0585 356.41 20.7416 357.397 19.4247C358.385 18.1077 359.701 17.7785 361.346 17.7785C362.992 17.7785 364.308 18.437 365.296 19.4247C366.283 20.4124 366.941 22.0585 366.941 23.7047C366.612 26.0093 366.283 27.6554 365.296 28.6431Z" fill="#0C008C"/>
<path d="M395.572 14.8154V9.54774H385.041V39.1785H395.572V26.3385C395.572 24.0339 396.23 22.717 397.218 21.7293C398.534 20.7416 400.18 20.4124 402.483 20.4124H405.445V9.21851C403.471 9.21851 401.496 9.87697 399.851 10.8647C398.205 11.8524 396.889 13.1693 395.572 14.8154Z" fill="#0C008C"/>
<path d="M438.355 15.803C437.038 13.4984 435.393 11.8522 433.089 10.5353C430.786 9.21839 428.153 8.88916 425.191 8.88916C422.229 8.88916 419.596 9.54762 417.293 10.8645C414.989 12.1815 413.343 13.8276 412.027 16.1322C410.711 18.4369 410.052 21.0707 410.052 24.0338C410.052 26.9969 410.711 29.9599 412.027 32.2645C413.343 34.5692 414.989 36.2153 417.293 37.5322C419.596 38.8492 422.229 39.5076 425.191 39.5076C427.495 39.5076 429.798 39.1784 431.773 38.1907C433.747 37.203 435.393 35.8861 436.709 34.2399C438.026 32.5938 439.013 30.6184 439.342 28.643H428.482C428.153 29.3015 427.824 29.9599 427.165 30.6184C426.507 31.2769 425.52 31.2769 424.533 31.2769C421.9 31.2769 420.254 29.6307 420.254 26.3384H439.671C440 25.3507 440 24.6922 440 24.0338C440 20.7415 439.342 18.1076 438.355 15.803ZM420.254 21.7292C420.254 20.083 420.913 19.0953 421.9 18.4369C422.887 17.7784 423.874 17.1199 425.191 17.1199C426.507 17.1199 427.495 17.4492 428.482 18.4369C429.469 19.0953 429.798 20.4122 429.798 21.7292H420.254Z" fill="#0C008C"/>
<path d="M412.027 66.8336L431.114 78.3567L412.027 89.8797L414.989 94.489L439.671 79.3444V76.7105L414.989 62.2244L412.027 66.8336Z" fill="#0C008C"/>
<path d="M377.143 95.1478L382.409 97.4524L401.167 54.9816L396.231 52.677L377.143 95.1478Z" fill="#0C008C"/>
<path d="M24.6821 61.8955L0 77.3694V80.0032L24.6821 94.4893L27.644 89.5509L8.55647 78.357L27.644 66.834L24.6821 61.8955Z" fill="#0C008C"/>
<path d="M79.6411 64.8587C77.6665 63.5418 75.692 62.8833 73.3883 62.8833C71.4137 62.8833 69.4392 63.2125 68.1228 64.2002C66.4773 65.1879 65.49 66.1756 64.8318 67.8218V63.2125H54.3008V107H64.8318V88.2341C65.49 89.8802 66.8064 91.1971 68.1228 91.8556C69.7682 92.8433 71.4137 93.1725 73.3883 93.1725C75.692 93.1725 77.9956 92.5141 79.6411 91.1971C81.6157 89.8802 82.932 88.2341 84.2484 85.9295C85.2357 83.6248 85.8939 80.991 85.8939 77.6987C85.8939 74.4064 85.2357 71.7725 84.2484 69.7971C83.2611 67.8218 81.2866 66.1756 79.6411 64.8587ZM73.7174 82.6371C72.7301 83.6248 71.4137 84.2833 69.7682 84.2833C68.1228 84.2833 66.8064 83.6248 65.8191 82.6371C64.8318 81.6495 64.1736 80.0033 64.1736 78.0279C64.1736 76.0525 64.8318 74.7356 65.8191 73.7479C66.8064 72.7602 68.1228 72.1018 69.7682 72.1018C71.4137 72.1018 72.7301 72.7602 73.7174 73.7479C74.7047 74.7356 75.3629 76.3818 75.3629 78.3571C75.0338 80.0033 74.7047 81.6495 73.7174 82.6371Z" fill="#0C008C"/>
<path d="M113.538 64.8583C111.234 63.5414 108.601 63.2122 105.64 63.2122C102.678 63.2122 100.045 63.8706 97.7413 65.1875C95.4376 66.5045 93.7922 68.1506 92.4758 70.4552C91.1594 72.7598 90.5012 75.3937 90.5012 78.3568C90.5012 81.3198 91.1594 84.2829 92.4758 86.5875C93.7922 88.8921 95.4376 90.5383 97.7413 91.8552C100.045 93.1721 102.678 93.8306 105.64 93.8306C107.943 93.8306 110.247 93.5014 112.221 92.5137C114.196 91.526 115.842 90.2091 117.158 88.5629C118.474 86.9168 119.462 84.9414 119.791 82.966H108.931C108.601 83.6245 108.272 84.2829 107.614 84.9414C106.956 85.5998 105.969 85.5998 104.981 85.5998C102.349 85.5998 100.703 83.9537 100.703 80.6614H120.12C120.449 79.6737 120.449 79.0152 120.449 78.3568C120.449 75.3937 119.791 72.7598 118.474 70.7845C117.816 67.8214 115.842 65.846 113.538 64.8583ZM101.032 75.7229C101.032 74.0768 101.69 73.0891 102.678 72.4306C103.665 71.7722 104.652 71.1137 105.969 71.1137C107.285 71.1137 108.272 71.4429 109.26 72.4306C110.247 73.0891 110.576 74.406 110.576 75.7229H101.032Z" fill="#0C008C"/>
<path d="M149.409 64.8587C147.106 63.5418 144.473 62.8833 141.511 62.8833C138.549 62.8833 135.916 63.5418 133.613 64.8587C131.309 66.1756 129.334 67.8218 128.018 70.1264C126.702 72.431 126.043 75.0648 126.043 78.0279C126.043 80.991 126.702 83.9541 128.018 85.9295C129.334 87.9048 131.309 89.8802 133.613 91.1972C135.916 92.5141 138.549 93.1725 141.511 93.1725C144.473 93.1725 147.106 92.5141 149.409 91.1972C151.713 89.8802 153.687 88.2341 155.004 85.9295C156.32 83.6248 156.978 80.991 156.978 78.0279C156.978 75.0648 156.32 72.431 155.004 70.1264C153.687 67.8218 151.713 66.1756 149.409 64.8587ZM145.131 82.6372C144.144 83.6248 143.156 84.2833 141.511 84.2833C140.195 84.2833 138.878 83.6248 137.891 82.6372C136.904 81.6495 136.574 80.0033 136.574 78.0279C136.574 76.0525 136.904 74.4064 137.891 73.4187C138.878 72.431 140.195 71.7725 141.511 71.7725C142.827 71.7725 144.144 72.431 145.131 73.4187C146.118 74.4064 146.447 76.0525 146.447 78.0279C146.447 80.0033 146.118 81.6495 145.131 82.6372Z" fill="#0C008C"/>
<path d="M189.23 64.8587C187.255 63.5418 185.281 62.8833 182.977 62.8833C181.002 62.8833 179.028 63.2125 177.711 64.2002C176.066 65.1879 175.079 66.1756 174.42 67.8218V63.2125H163.889V107H174.42V88.2341C175.079 89.8802 176.395 91.1971 177.711 91.8556C179.357 92.8433 181.002 93.1725 182.977 93.1725C185.281 93.1725 187.584 92.5141 189.23 91.1971C191.204 89.8802 192.521 88.2341 193.837 85.9295C194.824 83.6248 195.483 80.991 195.483 77.6987C195.483 74.4064 194.824 71.7725 193.837 69.7971C192.85 67.8218 191.204 66.1756 189.23 64.8587ZM183.306 82.6371C182.319 83.6248 181.002 84.2833 179.357 84.2833C177.711 84.2833 176.395 83.6248 175.408 82.6371C174.42 81.6495 173.762 80.0033 173.762 78.0279C173.762 76.0525 174.42 74.7356 175.408 73.7479C176.395 72.7602 177.711 72.1018 179.357 72.1018C181.002 72.1018 182.319 72.7602 183.306 73.7479C184.293 74.7356 184.951 76.3818 184.951 78.3571C184.951 80.0033 184.293 81.6495 183.306 82.6371Z" fill="#0C008C"/>
<path d="M242.214 64.8583C239.91 63.5414 237.278 63.2122 234.316 63.2122C231.354 63.2122 228.721 63.8706 226.418 65.1875C224.114 66.5045 222.468 68.1506 221.152 70.4552C219.836 72.7598 219.177 75.3937 219.177 78.3568C219.177 81.3198 219.836 84.2829 221.152 86.5875C222.468 88.8921 224.114 90.5383 226.418 91.8552C228.721 93.1721 231.354 93.8306 234.316 93.8306C236.62 93.8306 238.923 93.5014 240.898 92.5137C242.872 91.526 244.518 90.2091 245.834 88.5629C247.151 86.9168 248.138 84.9414 248.467 82.966H237.607C237.278 83.6245 236.949 84.2829 236.29 84.9414C235.632 85.5998 234.645 85.5998 233.658 85.5998C231.025 85.5998 229.379 83.9537 229.379 80.6614H248.796C249.125 79.6737 249.125 79.0152 249.125 78.3568C249.125 75.3937 248.467 72.7598 247.151 70.7845C246.163 67.8214 244.518 65.846 242.214 64.8583ZM229.379 75.7229C229.379 74.0768 230.038 73.0891 231.025 72.4306C232.012 71.7722 232.999 71.1137 234.316 71.1137C235.632 71.1137 236.62 71.4429 237.607 72.4306C238.594 73.0891 238.923 74.406 238.923 75.7229H229.379Z" fill="#0C008C"/>
<path d="M281.047 83.6247C280.718 83.2955 280.389 82.637 280.389 81.6493V72.1017H285.654V63.5417H280.389V56.2986H269.858V63.5417H266.567V72.1017H270.516V81.3201C270.516 85.6001 271.503 88.5632 273.478 90.2093C275.452 91.8555 278.414 92.8432 282.034 92.8432H286.313V83.954H283.68C282.363 83.954 281.705 83.954 281.047 83.6247Z" fill="#0C008C"/>
<path d="M315.273 64.8587C312.969 63.5418 310.337 62.8833 307.375 62.8833C304.413 62.8833 301.78 63.5418 299.476 64.8587C297.173 66.1756 295.198 67.8218 293.882 70.1264C292.565 72.431 291.907 75.0648 291.907 78.0279C291.907 80.991 292.565 83.9541 293.882 85.9295C295.198 87.9048 297.173 89.8802 299.476 91.1972C301.78 92.5141 304.413 93.1725 307.375 93.1725C310.337 93.1725 312.969 92.5141 315.273 91.1972C317.577 89.8802 319.551 88.2341 320.868 85.9295C322.184 83.6248 322.842 80.991 322.842 78.0279C322.842 75.0648 322.184 72.431 320.868 70.1264C319.551 67.8218 317.577 66.1756 315.273 64.8587ZM310.995 82.6372C310.007 83.6248 309.02 84.2833 307.375 84.2833C306.058 84.2833 304.742 83.6248 303.755 82.6372C302.767 81.6495 302.438 80.0033 302.438 78.0279C302.438 76.0525 302.767 74.4064 303.755 73.4187C304.742 72.431 306.058 71.7725 307.375 71.7725C308.691 71.7725 310.007 72.431 310.995 73.4187C311.982 74.4064 312.311 76.0525 312.311 78.0279C312.311 80.0033 311.653 81.6495 310.995 82.6372Z" fill="#0C008C"/>
<path d="M351.473 64.8587C349.17 63.5418 346.537 62.8833 343.575 62.8833C340.613 62.8833 337.981 63.5418 335.677 64.8587C333.373 66.1756 331.399 67.8218 330.082 70.1264C328.766 72.431 328.108 75.0648 328.108 78.0279C328.108 80.991 328.766 83.9541 330.082 85.9295C331.399 87.9048 333.373 89.8802 335.677 91.1972C337.981 92.5141 340.613 93.1725 343.575 93.1725C346.537 93.1725 349.17 92.5141 351.473 91.1972C353.777 89.8802 355.752 88.2341 357.068 85.9295C358.384 83.6248 359.043 80.991 359.043 78.0279C359.043 75.0648 358.384 72.431 357.068 70.1264C355.752 67.8218 353.777 66.1756 351.473 64.8587ZM347.195 82.6372C346.208 83.6248 345.221 84.2833 343.575 84.2833C342.259 84.2833 340.942 83.6248 339.955 82.6372C338.968 81.6495 338.639 80.0033 338.639 78.0279C338.639 76.0525 338.968 74.4064 339.955 73.4187C340.942 72.431 342.259 71.7725 343.575 71.7725C344.892 71.7725 346.208 72.431 347.195 73.4187C348.182 74.4064 348.512 76.0525 348.512 78.0279C348.512 80.0033 347.853 81.6495 347.195 82.6372Z" fill="#0C008C"/>
</svg>
